<svg xmlns="http://www.w3.org/2000/svg" width="200.715" height="16.861" viewBox="0 0 200.715 16.861">
  <title>FAULHABER</title>
  <g id="Gruppe_2004" data-name="Gruppe 2004" transform="translate(-29.063 -31.827)">
    <g id="Gruppe_1333" data-name="Gruppe 1333" transform="translate(29.063 31.827)">
      <path id="Pfad_263" data-name="Pfad 263" d="M29.412,48.3,51.055,31.83l1.121.858L31.66,48.3Z" transform="translate(-29.164 -31.828)" fill="#0082cb"/>
      <path id="Pfad_264" data-name="Pfad 264" d="M89.874,33.236l-1.829-1.4h1.829Z" transform="translate(-46.24 -31.829)" fill="#0082cb"/>
      <path id="Pfad_265" data-name="Pfad 265" d="M84.049,31.835,88.058,34.9v1.715l-6.249-4.784Z" transform="translate(-44.424 -31.829)" fill="#0082cb"/>
      <path id="Pfad_266" data-name="Pfad 266" d="M77.815,31.835l8.427,6.452V40L75.574,31.835Z" transform="translate(-42.608 -31.829)" fill="#0082cb"/>
      <path id="Pfad_267" data-name="Pfad 267" d="M71.547,31.835l12.87,9.852V43.4L69.306,31.835Z" transform="translate(-40.783 -31.829)" fill="#0082cb"/>
      <path id="Pfad_268" data-name="Pfad 268" d="M65.178,31.835,82.561,45.144v1.715L62.937,31.835Z" transform="translate(-38.928 -31.829)" fill="#0082cb"/>
      <path id="Pfad_269" data-name="Pfad 269" d="M55.687,31.827l-1.122.856-1.117-.856Z" transform="translate(-36.164 -31.827)" fill="#0082cb"/>
      <path id="Pfad_270" data-name="Pfad 270" d="M50.378,34.439l-3.406-2.61h2.24L51.5,33.583Z" transform="translate(-34.278 -31.827)" fill="#0082cb"/>
      <path id="Pfad_271" data-name="Pfad 271" d="M46.189,36.195l-5.7-4.365h2.241l4.58,3.509Z" transform="translate(-32.391 -31.827)" fill="#0082cb"/>
      <path id="Pfad_272" data-name="Pfad 272" d="M42,37.95l-7.99-6.121h2.24l6.872,5.265Z" transform="translate(-30.503 -31.827)" fill="#0082cb"/>
      <path id="Pfad_273" data-name="Pfad 273" d="M38.258,39.706l-9.195-7.042v-.834h1.152l9.165,7.02Z" transform="translate(-29.063 -31.827)" fill="#0082cb"/>
      <path id="Pfad_274" data-name="Pfad 274" d="M35.956,42.546l-6.894-5.277V35.555l8.016,6.136Z" transform="translate(-29.063 -32.912)" fill="#0082cb"/>
      <path id="Pfad_275" data-name="Pfad 275" d="M33.655,45.747l-4.591-3.514V40.517l5.713,4.374Z" transform="translate(-29.063 -34.358)" fill="#0082cb"/>
      <path id="Pfad_276" data-name="Pfad 276" d="M31.353,48.947l-2.29-1.753V45.479l3.412,2.612Z" transform="translate(-29.063 -35.803)" fill="#0082cb"/>
      <path id="Pfad_277" data-name="Pfad 277" d="M30.174,51.292l-1.111.847v-1.7Z" transform="translate(-29.063 -37.248)" fill="#0082cb"/>
      <path id="Pfad_278" data-name="Pfad 278" d="M55.193,34.274l1.121.858L38.094,49.009H35.848Z" transform="translate(-31.039 -32.539)" fill="#0082cb"/>
      <path id="Pfad_279" data-name="Pfad 279" d="M42.207,49.721l17.1-13,1.121.858L44.491,49.721Z" transform="translate(-32.891 -33.251)" fill="#0082cb"/>
      <path id="Pfad_280" data-name="Pfad 280" d="M48.666,50.434,63.454,39.166l1.121.858L50.913,50.434Z" transform="translate(-34.772 -33.964)" fill="#0082cb"/>
      <path id="Pfad_281" data-name="Pfad 281" d="M55.074,51.146l12.512-9.534,1.121.858L57.321,51.146Z" transform="translate(-36.638 -34.676)" fill="#0082cb"/>
      <path id="Pfad_282" data-name="Pfad 282" d="M61.481,51.859l10.236-7.8,1.121.857-9.11,6.942Z" transform="translate(-38.504 -35.389)" fill="#0082cb"/>
      <path id="Pfad_283" data-name="Pfad 283" d="M76.969,47.363l-6.835,5.208H67.887L75.848,46.5Z" transform="translate(-40.369 -36.101)" fill="#0082cb"/>
      <path id="Pfad_284" data-name="Pfad 284" d="M74.29,53.283l5.686-4.332,1.121.858-4.56,3.474Z" transform="translate(-42.234 -36.814)" fill="#0082cb"/>
      <path id="Pfad_285" data-name="Pfad 285" d="M80.694,54,84.1,51.4l1.121.857L82.94,54Z" transform="translate(-44.099 -37.526)" fill="#0082cb"/>
      <path id="Pfad_286" data-name="Pfad 286" d="M87.1,54.707l1.137-.867,1.136.868Z" transform="translate(-45.964 -38.238)" fill="#0082cb"/>
    </g>
    <g id="Gruppe_1334" data-name="Gruppe 1334" transform="translate(80.959 31.828)">
      <path id="Pfad_287" data-name="Pfad 287" d="M106.858,42.077v6.268h-4.575V31.83h11.69v3.2h-7.115v3.843h6.611v3.2Z" transform="translate(-102.283 -31.829)" fill="#002b53"/>
      <path id="Pfad_288" data-name="Pfad 288" d="M123.215,48.346H118.64l6.52-16.516h5.581l6.52,16.516h-5.17l-1.1-3.225h-6.7Zm2.242-6.429h4.415l-2.1-6.862Z" transform="translate(-107.047 -31.829)" fill="#002b53"/>
      <path id="Pfad_289" data-name="Pfad 289" d="M157.268,31.83h4.575V42.284c-.045,4.6-3.729,6.405-7.892,6.405s-7.845-1.808-7.891-6.405V31.83h4.575V42.056c.069,2.1,1.167,3.43,3.316,3.43s3.248-1.327,3.317-3.43Z" transform="translate(-115.032 -31.829)" fill="#002b53"/>
      <path id="Pfad_290" data-name="Pfad 290" d="M184.927,48.345H173.419V31.829h4.575V45.142h6.933Z" transform="translate(-123 -31.829)" fill="#002b53"/>
      <path id="Pfad_291" data-name="Pfad 291" d="M196.467,48.345h-4.574V31.829h4.6v6.543h5.6V31.829h4.575V48.345H202.1V41.573h-5.628Z" transform="translate(-128.381 -31.829)" fill="#002b53"/>
      <path id="Pfad_292" data-name="Pfad 292" d="M220.411,48.346h-4.576l6.521-16.516h5.581l6.519,16.516h-5.17l-1.1-3.225h-6.7Zm2.242-6.429h4.415l-2.105-6.862Z" transform="translate(-135.353 -31.829)" fill="#002b53" fill-rule="evenodd"/>
      <path id="Pfad_293" data-name="Pfad 293" d="M253.016,48.346h-7.755V31.83h7.915c3.11.023,5.719,1.418,5.719,4.323,0,2.036-1.716,3.272-3.569,3.615,2.2.342,3.981,1.738,3.981,4.095,0,4.8-6.131,4.484-6.291,4.484m-3.18-3.2h2.677a1.792,1.792,0,1,0,.32-3.569h-3Zm0-10.111v3.362l2.333-.023c1.236,0,2.036-.481,2.036-1.739a1.7,1.7,0,0,0-1.876-1.6Z" transform="translate(-143.923 -31.829)" fill="#002b53" fill-rule="evenodd"/>
      <path id="Pfad_294" data-name="Pfad 294" d="M282.521,48.345H269.94V31.829h12.581v3.2h-8.007V38.44h7.367v3.2h-7.367v3.5h8.007Z" transform="translate(-151.11 -31.829)" fill="#002b53"/>
      <path id="Pfad_295" data-name="Pfad 295" d="M296.557,38.829h1.785c1.463,0,2.881-.206,2.881-1.9s-1.418-1.9-2.881-1.9h-1.785Zm0,3.2v6.314h-4.574V31.829h7.641c2.791,0,6.405.755,6.405,4.255,0,2.471-1.9,3.775-4.209,4.049,2.928.16,3.477,1.647,3.773,4.209a20.026,20.026,0,0,0,.755,4h-4.963a29.833,29.833,0,0,1-.5-3.5c-.184-1.99-.275-2.813-2.609-2.813Z" transform="translate(-157.53 -31.829)" fill="#002b53" fill-rule="evenodd"/>
    </g>
  </g>
<script xmlns="" id="bw-fido2-page-script"/></svg>