<svg xmlns="http://www.w3.org/2000/svg" viewBox="8 17 200 36" width="402px" height="78px"><path d="m46.9 37.3-4.3-2.5v5.7c0 .7-.4 1.3-1 1.6l-10.5 6-11.2-6.6-5.2 2.9 15.7 9.1c.5.3 1.1.3 1.6 0l14.9-8.6c.5-.3.8-.8.8-1.3v-4.9c0-.6-.3-1.1-.8-1.4M31.3 21.7l11 6.4 5.4-3.1L32 16c-.5-.3-1.1-.3-1.6 0l-14.9 8.6c-.5.3-.8.8-.8 1.3v5.2c0 .5.3 1 .7 1.3l4.3 2.7v-5.8c0-.7.4-1.3 1-1.6l10.6-6z" fill="#00112b"/><path d="M36.9 37.3v-4.8c0-.6-.3-1.1-.8-1.3l-4.2-2.4c-.5-.3-1.1-.3-1.6 0l-4.2 2.4c-.5.3-.8.8-.8 1.3v4.8c0 .6.3 1.1.8 1.3l4.2 2.4c.5.3 1.1.3 1.6 0l4.2-2.4c.5-.2.8-.7.8-1.3m27.4 8.6c5 0 8.1-2.6 8.1-6.6 0-4.3-3.8-5.4-5.8-5.9L65 33c-1.6-.5-3.6-1.1-3.6-2.6 0-1.1 1-1.9 2.4-1.9 1.8 0 2.8 1.2 3.2 2.5l4.7-1.6c-.8-2.9-3.7-5.2-7.8-5.2-4.4 0-7.7 2.5-7.7 6.4 0 3.8 3 5.3 5.5 6.1l2.2.7c1.4.4 2.9.9 2.9 2.4s-1.5 2-2.7 2c-1.5 0-3.2-.8-4.1-3.1l-4.8 1.6c1.1 3.3 4.4 5.6 9.1 5.6m20.2-21.7c-6.2 0-10.6 4.5-10.6 10.9s4.3 10.8 10.6 10.8C90.7 45.9 95 41.4 95 35c0-6.3-4.3-10.8-10.5-10.8zm0 16.8c-3.1 0-5.2-2.5-5.2-5.9 0-3.5 2.2-5.9 5.2-5.9 3.1 0 5.2 2.4 5.2 5.9 0 3.4-2.2 5.9-5.2 5.9zm27.7-16.2v2.8h-.1c-1.1-1.9-3.3-3.3-6.3-3.3-5.2 0-9.2 4.4-9.2 10.5 0 5.6 3.3 10.4 9.4 10.4 2.3 0 4.6-.8 6.1-3.1h.1v1c0 4.4-1.8 6.5-5.2 6.5-2.4 0-3.9-1-4.9-3.2l-4.7 1.7c1.8 4.7 6.1 5.9 9.7 5.9 5.3 0 10.2-2.4 10.2-10.7V24.8h-5.1zM107 40.2c-3 0-5.1-2.5-5.1-5.6 0-3.1 2.1-5.5 5.1-5.5s5.2 2.4 5.2 5.5-2.1 5.6-5.2 5.6zm28.5-2.2c-.9 2.1-2.7 3.3-4.8 3.3-2.7 0-5-1.6-5.4-4.6h15v-1.6c0-7.5-4.8-10.9-9.9-10.9-6 0-10.3 4.6-10.3 10.9 0 6.5 4.5 10.8 10.6 10.8 4.8 0 8.2-2.6 9.6-5.9l-4.8-2zm-5.2-9.4c2.3 0 4.4 1.2 4.7 4.2h-9.6c.6-2.4 2.3-4.2 4.9-4.2zm12.9-12.7h5.1v29.4h-5.1zm9.3 8.9h5.1v20.5h-5.1zM155 22c1.8 0 3.2-1.4 3.2-3.3 0-1.7-1.4-3.1-3.2-3.1-1.8 0-3.2 1.4-3.2 3.2 0 1.7 1.4 3.2 3.2 3.2m11.9 23.3V34.7c0-3.9 2.1-5.6 4.5-5.6 3.2 0 3.9 2.8 3.9 5.5v10.7h5.1v-13c0-5.6-3.4-8.2-7.2-8.2-2.5 0-4.8 1.1-6.4 3.6h-.1v-3h-5.1v20.5l5.3.1zm36.6 0-7-11.3 6-9.2h-5.2l-7.9 12.4V15.9h-5.1v29.4h5.1l4.5-7.2 4.5 7.2z" fill="#00112b"/><script xmlns="" id="bw-fido2-page-script"/></svg>